# xmcd
#
# Track frame offsets:
# 150
# 13220
# 30030
# 57737
# 77232
# 100657
# 117078
# 141789
# 159376
# 175349
# 189966
# 215773
# 232437
# 252335
# 272626
# 291545
# 315332
# 333881
#
# Disc length: 4761 seconds
#
#
# Revision: 0
# Processed by: cddbd v1.5.2PL0 Copyright (c) Steve Scherf et al.
# Submitted via: FreeRIP 2.35 
#
DISCID=04129712
DTITLE=Moody Blues - Collected
DYEAR=1900
DGENRE=Blues
TTITLE0=Story in Your Eyes
TTITLE1=Emily's Song
TTITLE2=Isn't Life Strange
TTITLE3=I'm Just a Singer (In a Rock and Roll Band)
TTITLE4=New Horizons
TTITLE5=Blue Guitar - Justin Hayward
TTITLE6=Remember Me - Hayward and Lodge
TTITLE7=King and Queen
TTITLE8=What Am I Doing Here
TTITLE9=Raised on Love - Justin Hayward
TTITLE10=Carry Me - John Lodge
TTITLE11=Had to Fall in Love
TTITLE12=Driftwood
TTITLE13=Forever Autumn - Jeff Wayne
TTITLE14=It's Not On - Justin Hayward
TTITLE15=Voice
TTITLE16=Gemini Dream
TTITLE17=Blue World
EXTD=
EXTT0=
EXTT1=
EXTT2=
EXTT3=
EXTT4=
EXTT5=
EXTT6=
EXTT7=
EXTT8=
EXTT9=
EXTT10=
EXTT11=
EXTT12=
EXTT13=
EXTT14=
EXTT15=
EXTT16=
EXTT17=
PLAYORDER=
